<?xml version="1.0" encoding="utf-8"?>
<svg viewBox="0 0 500 500" xmlns="http://www.w3.org/2000/svg" xmlns:bx="https://boxy-svg.com">
	<defs></defs>
	<g id="XMLID_2188_" transform="matrix(0.528199, 0, 0, 0.528199, -268.889465, -116.829529)"
		style="transform-origin: 519.423px 396.413px;">
		<line id="XMLID_7309_" class="st0" x1="77.796" y1="662.868" x2="991.586" y2="662.868"
			style="fill: none; stroke: rgb(93, 92, 116); stroke-miterlimit: 10; stroke-width: 4px;"></line>
		<path id="XMLID_7308_" class="st1"
			d="M 820.089 299.414 C 850.885 395.767 805.401 468.871 687.119 468.871 C 562.136 468.871 525.93 396.025 555.435 299.414 C 574.119 238.451 567.032 172.192 585.973 141.841 C 612.773 99.089 637.641 82.427 686.989 82.427 C 733.503 82.427 763.654 97.28 782.724 138.869 C 798.443 172.709 800.118 236.902 820.089 299.414 Z"
			style="fill: rgb(243, 146, 0); stroke: rgb(93, 92, 116); stroke-miterlimit: 10; stroke-width: 3px;"></path>
		<path id="XMLID_7305_" class="st2"
			d="M 686.216 468.741 C 627.205 468.741 585.715 452.984 562.652 421.728 C 540.619 391.763 537.268 348.753 552.987 297.089 C 561.62 268.675 564.713 238.968 567.548 212.619 C 570.769 182.008 573.474 155.661 583.782 139.128 C 612 94.052 637.898 78.94 686.216 78.94 C 735.952 78.94 764.942 96.118 783.497 136.416 C 791.485 153.852 795.867 178.78 800.763 207.711 C 805.53 235.351 810.942 266.608 820.734 297.218 C 836.324 346.04 832.716 388.276 810.168 419.144 C 786.589 451.564 743.682 468.741 686.216 468.741 Z M 686.216 82.169 C 639.187 82.169 614.062 97.023 586.488 140.807 C 576.567 156.693 573.861 182.654 570.769 212.878 C 568.064 239.355 564.841 269.32 556.08 297.994 C 540.619 348.494 543.84 390.601 565.228 419.661 C 587.519 450.014 628.235 465.254 686.087 465.254 C 742.523 465.254 784.399 448.592 807.462 416.948 C 829.366 386.984 832.846 345.782 817.513 297.994 C 807.592 267.124 802.18 235.739 797.413 208.099 C 792.387 179.426 788.135 154.756 780.404 137.707 C 762.623 98.831 734.406 82.169 686.216 82.169 Z"
			style="fill: rgb(92, 92, 116);"></path>
		<path id="XMLID_7304_" class="st3"
			d="M 518.07 524.926 C 518.07 454.018 594.348 396.413 688.407 396.413 C 782.466 396.413 858.745 453.889 858.745 524.926"
			style="fill: rgb(55, 155, 243); stroke: rgb(93, 92, 116); stroke-miterlimit: 10; stroke-width: 4px;"></path>
		<path id="XMLID_7303_" class="st4"
			d="M 726.546 200.866 C 689.953 200.866 658.385 185.884 643.31 164.185 C 637.254 188.596 620.117 206.807 599.502 209.391 C 599.502 232.252 599.502 268.546 599.502 288.436 C 599.502 318.917 618.572 356.89 648.335 376.005 L 648.335 406.487 C 648.335 423.536 659.03 447.43 687.248 447.43 C 714.692 447.43 726.675 423.536 726.675 406.487 L 726.675 378.072 C 758.5 359.731 775.637 319.951 775.637 288.307 C 775.637 257.825 775.637 188.596 775.637 188.596 C 775.637 188.337 775.637 188.208 775.637 187.95 C 770.354 198.283 757.598 200.866 726.546 200.866 Z"
			style="fill: rgb(251, 215, 206);"></path>
		<path id="XMLID_7300_" class="st2"
			d="M 686.989 448.205 C 657.226 448.205 646.531 422.76 646.531 405.583 L 646.531 375.876 C 618.185 357.278 597.698 320.208 597.698 287.402 L 597.698 208.357 C 597.698 207.583 598.342 206.807 599.115 206.678 C 618.829 204.224 635.45 187.046 641.507 162.764 C 641.635 162.119 642.15 161.602 642.794 161.473 C 643.439 161.343 644.083 161.602 644.469 162.119 C 659.931 184.204 691.242 198.024 726.288 198.024 C 758.114 198.024 769.195 195.312 773.833 186.271 C 774.22 185.626 774.993 185.238 775.637 185.367 C 776.41 185.496 776.926 186.141 776.926 186.917 L 776.926 187.563 L 776.926 287.273 C 776.926 317.109 761.592 358.052 727.963 377.943 L 727.963 405.324 C 728.093 423.277 715.336 448.205 686.989 448.205 Z M 600.919 209.777 L 600.919 287.402 C 600.919 319.434 621.148 355.727 648.979 373.551 C 649.495 373.809 649.752 374.326 649.752 374.973 L 649.752 405.453 C 649.752 421.211 659.674 444.718 686.989 444.718 C 713.016 444.718 724.742 421.728 724.742 405.453 L 724.742 377.039 C 724.742 376.393 725 375.876 725.515 375.618 C 757.084 357.407 773.575 317.367 773.575 287.273 L 773.575 192.083 C 766.102 199.832 751.413 201.254 726.159 201.254 C 691.499 201.254 660.319 188.079 643.568 166.768 C 636.868 190.145 620.504 206.678 600.919 209.777 Z"
			style="fill: rgb(92, 92, 116);"></path>
		<g id="XMLID_7298_" transform="matrix(1.28848, 0, 0, 1.291588, 12.986093, -0.621456)" style="">
			<path id="XMLID_7299_" class="st2"
				d="M537.5,248.2c0,0-5.9,6.8-13.2,6.8c-7.3,0-13.2-6.8-13.2-6.8s5.9,0.8,13.2,0.8
			C531.6,249,537.5,248.2,537.5,248.2z"
				style="fill: rgb(92, 92, 116);"></path>
		</g>
		<g id="XMLID_7296_" transform="matrix(1.28848, 0, 0, 1.291588, 12.986093, -0.621456)" style="">
			<path id="XMLID_7297_" class="st2"
				d="M525,229.8c-0.1,0-0.2,0-0.3,0c-2.1-0.1-3.9-0.9-4.9-2.3c-0.8-1.1-1-2.5-0.6-3.9l1.2,0.4
			c-0.3,1-0.2,1.9,0.4,2.7c0.8,1.1,2.2,1.8,3.9,1.8c2,0,3.8-0.7,4.7-1.9c0.6-0.8,0.6-1.8,0.2-2.9l1.2-0.5c0.8,1.9,0.3,3.3-0.3,4.1
			C529.5,228.8,527.3,229.8,525,229.8z"
				style="fill: rgb(92, 92, 116);"></path>
		</g>
		<path id="XMLID_7295_" class="st5"
			d="M 876.654 488.373 L 876.654 690.637 C 876.654 701.098 868.149 709.623 857.713 709.623 L 515.751 709.623 C 505.314 709.623 496.81 701.098 496.81 690.637 L 496.81 488.115 C 496.81 477.654 505.314 469.129 515.751 469.129 L 857.713 469.129 C 868.149 469.387 876.654 477.911 876.654 488.373"
			style="fill: rgb(228, 230, 233);"></path>
		<path id="XMLID_7294_" class="st6"
			d="M 876.654 668.55 L 876.654 690.765 C 876.654 701.227 868.149 709.752 857.713 709.752 L 515.751 709.752 C 505.314 709.752 496.81 701.227 496.81 690.765 L 496.81 668.421 L 876.654 668.55 Z"
			style="fill: rgb(205, 207, 210);"></path>
		<path id="XMLID_7293_" class="st7"
			d="M 496.81 593.509 C 494.619 593.509 492.816 591.701 492.816 589.505 L 492.816 549.465 C 492.816 547.27 494.878 545.72 496.81 545.72 C 498.872 545.72 500.547 547.528 500.547 549.465 L 500.547 589.505 C 500.804 591.701 499.001 593.509 496.81 593.509"
			style="fill: rgb(93, 92, 116);"></path>
		<path id="XMLID_7292_" class="st7"
			d="M 857.713 713.885 L 515.751 713.885 C 502.995 713.885 492.816 703.552 492.816 690.894 L 492.816 614.174 C 492.816 611.978 494.878 610.428 496.81 610.428 C 498.872 610.428 500.547 612.236 500.547 614.174 L 500.547 690.894 C 500.547 699.16 507.246 706.136 515.493 706.136 L 857.713 706.136 C 865.96 706.136 872.659 699.419 872.659 690.894 L 872.659 488.373 C 872.659 480.107 865.96 473.133 857.713 473.133 L 515.751 473.133 C 507.505 473.133 500.804 479.848 500.804 488.373 L 500.804 528.155 C 500.804 530.35 499.001 532.158 496.81 532.158 C 494.619 532.158 492.816 530.35 492.816 528.155 L 492.816 488.373 C 492.816 475.587 503.124 465.384 515.751 465.384 L 857.713 465.384 C 870.469 465.384 880.648 475.717 880.648 488.373 L 880.648 690.637 C 880.648 703.423 870.469 713.885 857.713 713.885"
			style="fill: rgb(93, 92, 116);"></path>
		<path id="XMLID_7288_" class="st8"
			d="M 850.755 552.823 C 848.951 552.823 847.664 551.532 847.664 549.724 L 847.664 513.301 C 847.664 504.518 840.576 497.415 831.814 497.415 L 790.971 497.415 C 789.166 497.415 787.878 496.123 787.878 494.315 C 787.878 492.507 789.166 491.215 790.971 491.215 L 831.814 491.215 C 844.055 491.215 853.976 501.29 853.976 513.43 L 853.976 549.853 C 854.106 551.274 852.56 552.823 850.755 552.823 M 768.422 497.286 L 739.818 497.286 C 738.013 497.286 736.724 495.994 736.724 494.185 C 736.724 492.377 738.013 491.086 739.818 491.086 L 768.422 491.086 C 770.225 491.086 771.514 492.377 771.514 494.185 C 771.514 495.735 770.225 497.286 768.422 497.286 M 697.684 605.65 C 712.63 623.603 701.292 631.61 686.989 631.61 C 672.687 631.61 661.092 619.986 661.092 605.65 C 661.092 591.313 672.687 579.689 686.989 579.689 C 701.292 579.689 707.992 592.604 697.684 605.65"
			style="fill: rgb(255, 255, 255);"></path>
		<path id="XMLID_7285_" class="st7"
			d="M 686.732 583.435 C 674.621 583.435 664.827 593.251 664.827 605.392 C 664.827 617.533 674.621 627.349 686.732 627.349 C 693.431 627.349 698.843 625.282 700.132 622.182 C 701.678 619.082 699.746 613.915 694.592 607.846 C 693.431 606.554 693.303 604.229 694.592 602.679 C 698.586 597.771 699.746 592.604 697.684 588.859 C 696.138 585.76 691.886 583.435 686.732 583.435 M 686.732 635.614 C 670.239 635.614 656.839 622.182 656.839 605.65 C 656.839 589.117 670.239 575.685 686.732 575.685 C 694.979 575.685 701.678 579.431 704.771 585.76 C 707.734 591.572 706.833 598.675 702.58 605.392 C 708.379 613.27 710.182 620.115 707.476 625.798 C 704.642 631.998 696.782 635.614 686.732 635.614"
			style="fill: rgb(93, 92, 116);"></path>
		<path id="XMLID_7284_" class="st7"
			d="M 682.738 568.065 C 680.547 568.065 678.743 566.257 678.743 564.061 C 678.743 563.673 678.743 563.415 679.001 562.898 C 679.259 562.511 682.609 550.37 692.659 547.399 C 694.72 546.754 696.911 548.045 697.555 550.37 C 697.941 552.437 696.911 554.633 694.849 555.019 C 689.309 556.827 686.603 564.835 686.603 565.094 C 686.087 566.902 684.541 568.065 682.738 568.065"
			style="fill: rgb(93, 92, 116);"></path>
		<path id="XMLID_7283_" class="st9"
			d="M 302.894 684.695 L 358.298 684.695 L 358.298 601.905 L 302.894 601.905 L 302.894 684.695 Z"
			style="fill: rgb(223, 225, 226);"></path>
		<path id="XMLID_7280_" class="st7"
			d="M 306.888 680.692 L 354.433 680.692 L 354.433 605.909 L 306.888 605.909 L 306.888 680.692 Z M 358.427 688.699 L 303.023 688.699 C 300.832 688.699 299.029 686.89 299.029 684.695 L 299.029 601.905 C 299.029 599.709 300.832 597.901 303.023 597.901 L 358.427 597.901 C 360.618 597.901 362.421 599.709 362.421 601.905 L 362.421 684.695 C 362.164 686.89 360.618 688.699 358.427 688.699 Z"
			style="fill: rgb(93, 92, 116);"></path>
		<path id="XMLID_7275_" class="st7"
			d="M 358.427 673.716 C 356.236 673.716 354.433 671.908 354.433 669.712 C 354.433 667.516 356.236 665.708 358.427 665.708 C 370.668 665.708 380.717 655.634 380.717 643.365 C 380.717 631.094 370.668 621.02 358.427 621.02 C 356.236 621.02 354.433 619.212 354.433 617.016 C 354.433 614.82 356.236 613.012 358.427 613.012 C 375.177 613.012 388.577 626.703 388.577 643.493 C 388.577 660.155 374.92 673.716 358.427 673.716 M 330.725 591.572 C 330.08 591.572 329.436 591.313 328.921 590.667 C 328.277 589.764 321.835 580.851 323.122 574.78 C 323.767 572.069 325.313 570.131 327.118 568.065 C 329.179 565.611 331.112 563.415 331.369 559.54 C 331.627 558.249 332.657 557.344 334.075 557.344 C 335.364 557.603 336.265 558.635 336.265 560.057 C 335.878 565.481 333.173 568.581 330.854 571.293 C 329.566 572.843 328.148 574.394 327.89 575.944 C 327.245 579.043 330.982 585.372 332.787 587.826 C 333.689 588.988 333.43 590.279 332.4 591.184 C 331.627 591.442 331.241 591.572 330.725 591.572 M 317.067 589.893 C 316.809 589.893 316.68 589.893 316.423 589.634 C 316.036 589.247 311.527 586.275 311.011 583.176 C 310.754 581.885 311.269 580.463 311.913 579.431 C 312.557 577.881 313.073 576.459 312.557 574.78 C 312.3 574.135 312.815 573.489 313.459 573.489 C 314.104 573.231 314.748 573.748 314.748 574.394 C 315.391 577.105 314.49 578.914 314.104 580.463 C 313.718 581.368 313.459 582.273 313.459 583.176 C 313.718 584.467 316.166 586.792 317.712 588.085 C 318.098 588.471 318.355 589.247 317.969 589.634 C 317.84 589.634 317.582 589.893 317.067 589.893 M 344.382 590.279 C 343.996 590.279 343.481 590.022 343.223 589.376 C 342.966 588.73 341.161 583.564 342.836 580.851 C 343.481 579.689 344.641 578.784 345.8 578.139 C 347.089 577.235 348.248 576.589 349.15 574.78 C 349.408 574.135 350.053 573.877 350.696 574.394 C 351.083 574.651 351.599 575.297 351.34 575.944 C 350.181 578.397 348.378 579.56 347.089 580.463 C 346.187 581.109 345.284 581.626 345.027 582.273 C 344.382 583.564 345.027 586.792 345.671 588.73 C 345.929 589.376 345.671 590.022 345.027 590.279 L 344.382 590.279"
			style="fill: rgb(93, 92, 116);"></path>
		<path id="XMLID_7271_" class="st8"
			d="M 321.448 667.516 C 319.515 667.516 317.969 666.096 317.969 664.029 L 317.969 638.198 C 317.969 636.26 319.387 634.711 321.448 634.711 C 323.381 634.711 324.927 636.131 324.927 638.198 L 324.927 664.029 C 324.927 666.096 323.381 667.516 321.448 667.516 C 321.448 667.775 321.448 667.775 321.448 667.516 M 321.448 696.965 C 319.515 696.965 317.969 695.544 317.969 693.478 L 317.969 680.433 C 317.969 678.496 319.387 676.945 321.448 676.945 C 323.381 676.945 324.927 678.366 324.927 680.433 L 324.927 693.478 C 324.927 695.286 323.381 696.965 321.448 696.965"
			style="fill: rgb(255, 255, 255);"></path>
		<path id="XMLID_7270_" class="st6"
			d="M 308.176 346.299 L 243.623 411.136 C 243.623 411.136 228.677 397.316 226.487 385.434 C 226.487 385.434 215.792 358.052 240.145 336.483 C 240.145 336.483 254.318 319.693 284.082 326.925 C 284.082 326.925 300.316 332.349 308.176 346.299 Z"
			style="fill: rgb(205, 207, 210);"></path>
		<path id="XMLID_7269_" class="st7"
			d="M 154.589 300.576 C 154.719 299.931 155.234 299.543 155.749 299.285 C 156.264 299.027 156.909 299.027 157.553 299.285 L 234.733 333.254 C 234.99 333.383 235.249 333.513 235.506 333.771 C 255.477 315.43 286.53 315.818 305.857 335.191 C 308.821 338.161 311.397 341.52 313.459 345.007 C 314.361 346.04 314.361 347.591 313.33 348.494 L 307.919 353.919 L 300.575 353.919 L 308.047 346.428 C 306.373 343.844 304.312 341.262 302.121 338.937 C 284.339 321.113 255.349 321.113 237.438 338.937 C 224.941 351.466 221.204 369.676 226.359 385.563 C 226.359 385.563 226.359 385.563 226.359 385.563 C 226.616 386.467 226.487 387.371 225.714 388.017 C 224.683 389.05 223.136 389.05 222.106 388.017 C 221.977 387.888 221.849 387.629 221.72 387.5 C 221.72 387.5 221.59 387.5 221.59 387.371 C 221.59 387.371 221.59 387.242 221.59 387.242 C 221.59 387.112 221.462 386.984 221.462 386.855 C 216.05 369.935 219.658 350.82 232.156 337 L 157.94 304.322 L 127.919 400.158 L 123.28 400.158 L 154.589 300.576 Z"
			style="fill: rgb(93, 92, 116);"></path>
		<path id="XMLID_7265_" class="st7"
			d="M 158.326 686.89 C 157.682 686.89 157.037 686.633 156.651 686.116 L 105.886 623.603 L 111.555 623.603 L 159.357 682.5 L 242.077 682.5 C 243.237 682.5 244.268 683.532 244.268 684.695 L 244.268 696.32 C 244.268 697.482 243.237 698.515 242.077 698.515 L 64.911 700.324 C 64.911 700.324 64.911 700.324 64.911 700.324 C 63.752 700.324 62.721 699.29 62.721 698.128 C 62.721 696.965 63.623 695.932 64.911 695.932 L 239.887 694.124 L 239.887 686.89 L 158.326 686.89 Z"
			style="fill: rgb(93, 92, 116);"></path>
		<path id="XMLID_7263_" class="st7"
			d="M 247.231 414.752 C 246.201 415.786 244.526 415.786 243.623 414.752 C 242.593 413.72 242.593 412.041 243.623 411.136 L 256.895 397.833 L 256.895 405.195 L 247.231 414.752 Z"
			style="fill: rgb(93, 92, 116);"></path>
		<path id="XMLID_7262_" class="st10"
			d="M 296.967 398.35 C 287.432 407.908 272.357 408.295 262.178 399.771 L 298.255 363.606 C 306.888 373.68 306.501 388.793 296.967 398.35 Z"
			style="fill: rgb(237, 238, 239);"></path>
		<path id="XMLID_7256_" class="st7"
			d="M 307.919 353.919 L 300.575 353.919 L 256.766 397.833 L 256.766 405.195 L 258.441 403.516 C 270.553 414.107 288.978 413.72 300.446 402.096 C 311.913 390.601 312.429 372.131 301.863 359.989 L 307.919 353.919 Z M 298.384 363.606 C 306.888 373.68 306.501 388.922 296.967 398.479 C 287.432 408.037 272.357 408.425 262.178 399.9 L 298.384 363.606 Z"
			style="fill: rgb(93, 92, 116);"></path>
		<path id="XMLID_7255_" class="st5"
			d="M 77.668 611.204 C 63.236 611.204 51.639 599.45 51.639 585.113 C 51.639 570.647 63.366 559.023 77.668 559.023 C 92.098 559.023 103.695 570.776 103.695 585.113 C 103.695 599.58 91.97 611.204 77.668 611.204 Z"
			style="fill: rgb(228, 230, 233);"></path>
		<path id="XMLID_7251_" class="st7"
			d="M 106.014 623.603 L 111.683 623.603 L 98.541 607.329 C 104.468 601.775 108.204 593.897 108.204 585.113 C 108.204 572.069 99.958 560.96 88.49 556.57 L 92.098 545.074 L 87.46 545.074 L 84.239 555.278 C 82.177 554.761 79.857 554.503 77.668 554.503 C 60.917 554.503 47.259 568.194 47.259 584.984 C 47.259 601.775 60.917 615.466 77.668 615.466 C 84.11 615.466 90.166 613.4 95.062 609.911 L 106.014 623.603 Z M 77.668 611.204 C 63.236 611.204 51.639 599.45 51.639 585.113 C 51.639 570.647 63.366 559.023 77.668 559.023 C 92.098 559.023 103.695 570.776 103.695 585.113 C 103.695 599.58 91.97 611.204 77.668 611.204 Z"
			style="fill: rgb(93, 92, 116);"></path>
		<rect id="XMLID_7247_" x="64.911" y="686.89" class="st6" width="174.975" height="9.041"
			style="fill: rgb(205, 207, 210);"></rect>
		<line id="XMLID_7245_" class="st11" x1="85.656" y1="557.732" x2="126.63" y2="396.928"
			style="fill: none; stroke: rgb(93, 92, 116); stroke-miterlimit: 10; stroke-width: 3px;"></line>
		<g id="XMLID_7240_" transform="matrix(1.28848, 0, 0, 1.291588, 12.986093, -0.621456)" style="">
			<path id="XMLID_7243_" class="st2"
				d="M475.8,189.7c-0.6,0-1.3-0.2-1.8-0.7c-1.1-1-1.1-2.6-0.1-3.7c3.3-3.5,7.9-5.3,12.3-4.9
			c3.7,0.3,6.8,2.2,8.7,5.1c0.8,1.2,0.4,2.8-0.8,3.6c-1.2,0.8-2.8,0.4-3.6-0.8c-1-1.6-2.7-2.5-4.7-2.7c-2.8-0.3-5.8,1-8,3.3
			C477.2,189.4,476.5,189.7,475.8,189.7z"
				style="fill: rgb(92, 92, 116);"></path>
		</g>
		<g id="XMLID_7234_" transform="matrix(1.28848, 0, 0, 1.291588, 12.986093, -0.621456)" style="">
			<path id="XMLID_7235_" class="st2"
				d="M574.4,189.7c-0.7,0-1.4-0.3-1.9-0.8c-2.2-2.3-5.4-3.6-8.6-3.4c-2.6,0.1-4.8,1.2-6.2,3
			c-0.9,1.2-2.5,1.4-3.7,0.5c-1.1-0.9-1.4-2.5-0.5-3.7c2.3-3,5.9-4.8,10-5.1c4.8-0.3,9.4,1.6,12.7,5c1,1,1,2.7-0.1,3.7
			C575.7,189.4,575.1,189.7,574.4,189.7z"
				style="fill: rgb(92, 92, 116);"></path>
		</g>
		<animateTransform type="skewX" additive="sum" attributeName="transform" values="0; 0"
			begin="-0.55s" dur="8.65s" fill="freeze"></animateTransform>
	</g>
	<path
		d="M 589 346.067 L 596.024 348.976 L 598.933 356 L 596.024 363.024 L 589 365.933 L 581.976 363.024 L 579.067 356 L 581.976 348.976 Z"
		style="fill: none; stroke: rgb(243, 146, 0); stroke-miterlimit: 10; stroke-width: 2px;"
		transform="matrix(-0.770394, 0.637568, -0.637568, -0.770394, 749.718304, 240.288507)"
		bx:shape="n-gon 589 356 9.933 9.933 8 0 1@2bcb06db"></path>
	<path
		d="M 589 336.126 L 603.053 341.947 L 608.874 356 L 603.053 370.053 L 589 375.874 L 574.947 370.053 L 569.126 356 L 574.947 341.947 Z"
		style="fill: none; stroke: rgb(243, 146, 0); stroke-miterlimit: 10; stroke-width: 2px;"
		transform="matrix(-0.770394, 0.637568, -0.637568, -0.770394, 1129.022381, 17.687633)"
		bx:shape="n-gon 589 356 19.874 19.874 8 0 1@e2f95c32"></path>
	<path
		d="M 589 338.136 L 601.162 343.368 L 606.199 356 L 601.162 368.632 L 589 373.864 L 576.838 368.632 L 571.801 356 L 576.838 343.368 Z"
		style="fill: none; stroke: rgb(243, 146, 0); stroke-miterlimit: 10; stroke-width: 2px;"
		transform="matrix(-0.770394, 0.637568, -0.637568, -0.770394, 1138.365887, 154.708887)"
		bx:shape="n-gon 589 356 17.199 17.864 8 0 1@46970cfc"></path>
	<path
		d="M 589 293.287 L 633.345 311.655 L 651.713 356 L 633.345 400.345 L 589 418.713 L 544.655 400.345 L 526.287 356 L 544.655 311.655 Z"
		style="fill: none; stroke: rgb(243, 146, 0); stroke-miterlimit: 10; stroke-width: 2px; transform-box: fill-box; transform-origin: 50% 50%;"
		transform="matrix(-0.770394, 0.637568, -0.637568, -0.770394, -428.048645, -195.611832)"
		bx:shape="n-gon 589 356 62.713 62.713 8 0 1@a6d5821f"></path>
	<path
		d="M 589 350.428 L 592.94 352.06 L 594.572 356 L 592.94 359.94 L 589 361.572 L 585.06 359.94 L 583.428 356 L 585.06 352.06 Z"
		style="fill: none; stroke: rgb(243, 146, 0); stroke-miterlimit: 10; stroke-width: 2px;"
		transform="matrix(-0.770394, 0.637568, -0.637568, -0.770394, 891.870281, 206.649896)"
		bx:shape="n-gon 589 356 5.572 5.572 8 0 1@ad2996f5"></path>
	<path
		d="M 589 346.067 L 596.024 348.976 L 598.933 356 L 596.024 363.024 L 589 365.933 L 581.976 363.024 L 579.067 356 L 581.976 348.976 Z"
		style="fill: none; stroke: rgb(243, 146, 0); stroke-miterlimit: 10; stroke-width: 2px;"
		transform="matrix(-0.770394, 0.637568, -0.637568, -0.770394, 945.668133, 14.338652)"
		bx:shape="n-gon 589 356 9.933 9.933 8 0 1@2bcb06db"></path>
</svg>