<?xml version="1.0" encoding="utf-8"?>
<!-- Generator: Adobe Adobe Illustrator 24.2.0, SVG Export Plug-In . SVG Version: 6.00 Build 0)  -->
<svg version="1.1" id="Layer_1" xmlns="http://www.w3.org/2000/svg" xmlns:xlink="http://www.w3.org/1999/xlink" x="0px" y="0px"
	 width="522.22px" height="320px" viewBox="0 0 522.22 320" style="enable-background:new 0 0 522.22 320;" xml:space="preserve">
<style type="text/css">
	.st0{fill:#FFFFFF;}
	.st1{fill:#F18E35;}
	.st2{fill:#F28E36;}
</style>
<g>
	<path class="st2" d="M401.81,132.75c-0.11-7.79-0.99-14.63-2.69-20.9c-3.63-13.37-11.27-24.37-23.35-33.62
		c-14.49-11.1-31.25-15.71-45.73-18.76c-12.27-2.59-25.28-4.03-38.67-4.29c-6.4-0.12-12.05-0.18-17.28-0.18
		c-14.24,0-26.7,0.45-38.07,1.37c-19.14,1.55-33.74,3.7-47.36,6.95c-17.28,4.14-30.48,9.69-41.56,17.46
		c-16.55,11.6-25.09,27.28-25.37,46.61c-0.11,7.44-0.02,14.96,0.07,22.24c0.13,9.88-0.18,20.09-0.14,30.07
		c0.13,38.12-12.11,55.98-19.49,74.77c-0.93,2.36,1.66,4.68,4.09,3.94c18.33-5.58,45.52-12.08,71.08-12.08
		c18.92-0.25,42.75,1.17,98.39,2.97c0,0,0,0,0.01,0c0,0,0,0,0,0c0.02,0,0.04,0,0.07,0c8.54,0.22,36.16,0.67,59.7-3.68
		c9.98-1.84,16.59-4.06,21.83-6.26c5.57-2.33,11.53-5.45,17.63-9.67c10.37-7.17,18.15-18.54,23.76-34.77
		c2.68-6.44,3.08-12.73,3.12-17.51C401.95,163.34,402.02,148.18,401.81,132.75z M190.19,224.92c-50.98,0-45.83-13.2-45.68-75.68
		c0.11-46.13,5.54-61.62,39.01-68.77c9.88-2.11,12.94,2.13,13.03,8.57c0.09,6.33-1.86,9.12-12.05,9.63
		c-19.41,0.97-15.05,12.58-16.79,49.84c-2.65,56.74-0.09,56.41,23.05,57.5c7.62,0.36,7.79,5.7,7.67,9.69
		C198.3,219.7,198.94,224.92,190.19,224.92z M236.05,184.54c-0.25,8.56-1.31,31.5-1.96,34.88c-0.82,4.2-3.04,6.79-7.62,6.91
		l-0.17,0.01c-1.19,0.03-2.22,0.05-3.09,0.05c-2.37,0-4.62-0.13-6.2-1.71c-1.8-1.81-1.79-4.4-1.78-9.09c0,0,0.04-10.5,0.06-15.62
		c0.09-21.46,0.18-43.66,0.04-65.48c-0.06-9.61-0.42-19.38-0.78-28.84c-0.18-4.88-0.51-9.92-0.51-14.89
		c-0.01-11.41,0.06-13.44,9.31-14.73c11.65-1.63,10.13,2.15,11.28,8.91C236.1,93.6,236.28,176.44,236.05,184.54z M281.83,173.59
		c-0.14-1.63,0.11,0.57-0.21-2.25c-0.21-1.87-1.82-3.24-3.71-3.22c-25.52,0.28-25.48-0.53-25.52-8.85
		c-0.05-8.67-2.5-10.12,13.55-9.66c13.54-0.46,14.58-5.37,14.83-11.03c0.23-5.17,0.4-9.47,0.44-14.35l0.02-1.45
		c0.08-7.64,0.08-15.41,0.08-22.93c-0.01-4.11-0.12-10.92-0.14-12.6c-0.24-14.33,0.97-15.62,9.7-14.98
		c8.8,0.65,9.97,0.77,9.78,15.01c-0.07,4.95,0.15,10.01,0.3,14.9c0.09,2.89,0.17,5.78,0.23,8.67c0.09,4.72,0.2,9.44,0.31,14.15
		c0.42,18.06-0.05,32.94-0.38,51.33c-0.1,5.69-0.59,5.96-9.96,6.23C282.56,182.82,282.66,183.43,281.83,173.59z M368.19,206.79
		c-4.84,6.67-11.19,11.85-18.89,15.37c-11.88,5.44-24.41,8.21-37.21,8.21c-1.64,0-3.3-0.04-4.95-0.13
		c-10.84-0.6-21.05-12.33-21.78-25.31c-0.29-5.16-2.31-7.3,8.16-7.7c10.14-0.39,8.42,1.53,10.71,7.09c1.62,3.94,6.45,7.77,9.37,7.76
		c16.93-0.04,25.17-5.07,30.92-8.09c5.01-3.66,7.79-6.68,9.56-10.4c1.6-3.34,1.75-7.03,1.78-10.54c0.11-16.89,0.03-35.02-1.36-53.15
		c-0.65-8.55-2.5-15.87-5.64-22.35c-2.75-5.7-7.1-9.05-14.1-10.89c-3.09-0.81-5.7-1.63-9.11-2.44c-6.94-1.65-6.92-4.22-6.95-9.63
		c-0.06-8.39,2.52-9.86,6.54-9.52c16.2,1.38,19.81,4.13,26.91,7.64c5.35,2.65,9.55,6.86,13.19,13.27
		c5.53,9.73,8.42,20.25,8.82,32.16c0.59,17.5,1.17,36.12,1.19,54.52C375.36,192.24,373.02,200.13,368.19,206.79z"/>
	<path class="st2" d="M467.74,136.72c-0.05-5.14-0.11-10.46-0.1-15.67c0.01-8.83-3.5-15.82-10.15-20.21
		c-1.07-0.71-1.07-0.73-1.04-1.83c0.34-15.52-5.64-29.72-18.27-43.41c-10.76-11.67-24.4-20.35-44.22-28.16
		c-17.61-6.94-36.71-11.59-58.39-14.21c-14.07-1.71-30.71-3.45-47.39-3.45c-1.56,0-3.11,0.01-4.67,0.05
		c-1.71,0.03-3.43,0.05-5.15,0.05c-2.58,0-5.15-0.03-7.73-0.06c-2.61-0.03-5.22-0.06-7.83-0.06c-6.08,0-10.75,0.16-15.14,0.52
		c-4.62,0.38-9.36,0.67-13.94,0.96c-10.59,0.66-21.54,1.34-32.36,3.08c-2.91,0.47-5.91,0.9-8.8,1.31
		c-6.05,0.87-12.3,1.77-18.44,3.09c-18.75,4.03-33.84,8.51-47.5,14.09c-17.88,7.31-31.1,15.47-41.59,25.67
		c-7.76,7.54-18.13,19.61-18.65,37.21c-0.08,2.65-0.4,2.85-0.86,3.13c-7.11,4.35-10.92,11.5-11,20.7
		c-0.16,17.43-0.17,35.07-0.03,52.44c0.13,15.66,12.59,25.02,24.57,25.02c0.72,0,1.44-0.04,2.13-0.11
		c12.95-1.3,22.42-12.28,22.5-26.1c0.1-16.34,0.21-33.23-0.03-50.16c-0.15-10.95-5.02-19.05-14.07-23.45
		c1.24-6.82,4.78-12.87,11.48-19.6c9.95-9.99,22.71-17.61,41.36-24.71c16.91-6.43,35.59-10.98,60.58-14.74
		c17.65-2.66,34.68-4.21,50.6-4.62l5.49-0.14c9.07-0.24,18.44-0.49,27.63-0.49c11.18,0,20.49,0.36,29.31,1.13
		c12.17,1.07,24.26,2.81,35.93,5.19c16.45,3.35,30.81,8.49,43.89,15.73c19.26,10.66,31.32,24.45,36.88,42.16l0.24,0.74
		c0.1,0.29,0.22,0.66,0.32,1c-6.24,2.81-13.53,9.04-13.8,22.77c-0.32,16.47-0.32,32.99-0.01,49.1c0.28,14.15,7.73,20.46,14.29,23.27
		c0.16,4.45,0.13,8.48-0.91,12.27c-3.59,13.07-11.3,24.04-23.57,33.53c-10.72,8.29-22.92,14.91-37.29,20.25l-0.1,0.04
		c-7.01,2.78-13.97,4.6-21.34,6.52l-1.66,0.44c-8.76,2.3-18.58,4.12-30,5.57c-19.38,2.46-34.33,3.67-48.46,3.94
		c-8.15,0.15-16.1,0.23-23.63,0.23c-15.37,0-29.54-0.31-43.31-0.94c-1.64-0.08-3.35-0.33-5.16-0.59c-1.06-0.16-2.12-0.31-3.19-0.44
		c-0.48-0.06-0.64-0.07-1.19-0.93c-4.38-6.73-10.91-10.28-18.89-10.28c-1.23,0-2.5,0.09-3.77,0.26
		c-9.11,1.23-15.78,6.76-18.76,15.58c-3.7,10.92,1.64,23.67,11.89,28.43c3.48,1.61,7.04,2.43,10.61,2.43
		c8.04,0,15.17-4.18,19.57-11.47c0.08-0.12,0.14-0.22,0.19-0.28c0.02,0,0.25,0,0.25,0c1.9,0.07,3.81,0.16,5.72,0.25
		c3.79,0.18,7.72,0.37,11.61,0.4c4.89,0.03,9.78,0.09,14.67,0.15c7.46,0.09,15.16,0.18,22.76,0.18c18.03,0,31.85-0.52,44.8-1.69
		c16.33-1.47,33.7-3.21,50.71-6.7c18.09-3.71,34.02-9.02,48.7-16.21c23.01-11.28,39.79-26.32,51.29-46
		c7.2-12.32,10.87-24.24,11.21-36.43c0.04-0.03,0.09-0.06,0.14-0.1c6.67-4.61,10.25-10.51,10.66-17.55
		C468,162.04,467.87,149.17,467.74,136.72z"/>
</g>
</svg>
